<svg xmlns="http://www.w3.org/2000/svg" height="800" width="1200" viewBox="-38.4 -10 332.8 60"><path d="M20.2848.0167C9.217.9522 3.1818 4.8445 3.1818 12.218h13.785c.109-4.0653 3.8013-6.2094 11.0829-6.3879H39.235c14.3083.4313 13.1898 8.9576 1.5393 9.4973l-8.8594.507-5.2678.338C11.0641 16.9273 1.202 20.2316.0005 27.427-.0727 34.657 7.2004 38.7774 21.0715 40h5.8494c1.7114-.0718 3.3917-.1944 4.994-.338 7.7185-.6474 13.9776-2.126 17.582-4.9683C50.6985 37.5 52.831 39.5686 57.0909 40h11.5275l-.1369-5.9485c-3.5312.2519-5.4233-1.4048-5.6782-5.0021l.171-14.6685C62.683 6.0706 56.6626.8076 42.2452.0167zm58.6637 0V40H92.118V.0167zm32.0855 0c-2.9491.1433-5.8782.657-8.791.9802l.0684 4.529c3.4955-.1447 5.6242 1.7993 5.9519 6.1512v18.2848c-.1817 5.18 2.2618 8.6032 8.4147 9.9705V40h51.1383c6.1886-1.3667 8.6282-4.858 8.4832-10.038h-.0343V11.677c.3284-4.3519 2.4232-6.296 5.9177-6.1513l.1026-4.529c-2.9116-.323-5.8424-.8368-8.791-.98-6.1174-.2516-9.5955 2.332-9.8514 7.9087v21.7998c-.5815 3.4898-2.4628 5.0275-5.302 5.1712h-9.6461V.0167h-13.1694v34.8798h-9.3725c-2.8391-.1437-4.6872-1.6814-5.2336-5.1712V7.9255h-.0342c-.2186-5.5767-3.6985-8.1602-9.8513-7.9088zm96.701 0c-11.0678.9355-17.1715 4.8278-17.1715 12.2012h13.8193c.1095-4.0653 3.801-6.2094 11.0828-6.3879h11.1855c14.3077.4313 13.1899 8.9576 1.5392 9.4973l-8.8936.507-5.1993.338c-15.583.7551-25.4426 4.0594-26.6809 11.2548-.0356 7.23 7.1655 11.3504 21.0368 12.5729h5.8493c1.7117-.0718 3.3919-.1944 4.9941-.338 7.7553-.6474 14.0123-2.126 17.6162-4.9683 1.2014 2.8063 3.37 4.8749 7.5938 5.3063H256l-.0684-5.9485c-3.5314.2519-5.421-1.4048-5.7124-5.0021l.171-14.6685c-.29-8.3103-6.3473-13.5733-20.729-14.3642H207.735zM49.4286 18.5043c.473 8.6698-5.0988 14.4526-17.5136 15.7838-.2913.036-.5644.0318-.8552.0676h-8.4831c-5.6066-.6115-7.8456-2.9726-8.2095-6.354-.1819-3.8494 3.1116-5.5313 8.791-5.712l8.7568-.7435 7.9016-.7098c3.5681-.4315 6.9176-1.289 9.612-2.332zm187.416 0c.4378 8.6698-5.0968 14.4526-17.5479 15.7838-.2545.036-.5309.0318-.7867.0676h-8.4832c-5.6057-.6115-7.877-2.9726-8.2779-6.354-.182-3.8494 3.1443-5.5313 8.8252-5.712l8.7226-.7435 7.9017-.7098c3.5684-.4315 6.952-1.289 9.6461-2.332z" fill="#ff220b" fill-rule="evenodd"/></svg>